<svg width="13" height="14" viewBox="0 0 13 14" fill="none" xmlns="http://www.w3.org/2000/svg">
<path fill-rule="evenodd" clip-rule="evenodd" d="M6.5 12.5C7.95869 12.5 9.35764 11.9205 10.3891 10.8891C11.4205 9.85764 12 8.45869 12 7C12 5.54131 11.4205 4.14236 10.3891 3.11091C9.35764 2.07946 7.95869 1.5 6.5 1.5C5.04131 1.5 3.64236 2.07946 2.61091 3.11091C1.57946 4.14236 1 5.54131 1 7C1 8.45869 1.57946 9.85764 2.61091 10.8891C3.64236 11.9205 5.04131 12.5 6.5 12.5ZM6.5 13.5C8.22391 13.5 9.87721 12.8152 11.0962 11.5962C12.3152 10.3772 13 8.72391 13 7C13 5.27609 12.3152 3.62279 11.0962 2.40381C9.87721 1.18482 8.22391 0.5 6.5 0.5C4.77609 0.5 3.12279 1.18482 1.90381 2.40381C0.684819 3.62279 0 5.27609 0 7C0 8.72391 0.684819 10.3772 1.90381 11.5962C3.12279 12.8152 4.77609 13.5 6.5 13.5Z" fill="black"/>
<path d="M7.5 8H3.5V7H6.5V3H7.5V8Z" fill="black"/>
</svg>
