<svg width="25" height="22" viewBox="0 0 25 22" fill="none" xmlns="http://www.w3.org/2000/svg">
<path d="M7.07812 5.3431C7.07812 2.41101 9.43188 0.0351562 12.3324 0.0351562C15.233 0.0351562 17.5867 2.41101 17.5867 5.3431C17.5867 8.27519 15.233 10.651 12.3324 10.651C9.43188 10.651 7.07812 8.27519 7.07812 5.3431Z" fill="#151515"/>
<path d="M23.9434 12.6307C23.5931 12.5962 23.3154 12.8291 23.1787 13.1481C21.5982 16.8909 19.7357 16.1277 18.5695 15.7741C16.331 15.0971 10.7265 12.2728 7.65503 12.2426C2.56306 12.1866 0.713369 17.4298 0.017067 20.073C-0.0854561 20.4611 0.277646 20.8621 0.674923 20.9009C1.02521 20.9354 1.28579 20.6939 1.43957 20.3835C3.17392 16.9426 5.58749 17.6196 6.83485 17.9473C9.09463 18.5423 15.2204 21.2631 17.3435 21.289C21.8587 21.3494 23.7811 16.9426 24.6183 13.4543C24.7123 13.0619 24.3364 12.6652 23.9391 12.6264L23.9434 12.6307Z" fill="#151515"/>
</svg>
