<svg width="117" height="25" viewBox="0 0 117 25" fill="none" xmlns="http://www.w3.org/2000/svg">
<g clip-path="url(#clip0_5996_14)">
<path d="M28.5483 1.10742H30.4578V7.27343C30.4578 7.97627 30.4835 8.13581 30.6202 8.39452C30.8337 8.81278 31.2737 9.04131 31.8889 9.04131C32.7048 9.04131 33.226 8.63599 33.3071 7.9504C33.3327 7.74774 33.3327 7.61407 33.3327 7.11389V1.10742H35.2294V7.42003C35.2294 8.3126 35.2166 8.48507 35.0842 8.89039C34.845 9.63204 33.9351 10.6583 31.9316 10.6583C30.5134 10.6583 29.4839 10.2271 28.9499 9.40351C28.6423 8.91626 28.5483 8.54113 28.5483 7.63563V1.10742Z" fill="#151515"/>
<path d="M35.9385 3.8594L37.5276 3.40234C37.6899 3.68693 37.7796 3.98445 37.7796 4.26472C38.194 3.9672 38.2751 3.91546 38.5699 3.75161C38.9287 3.56188 39.3986 3.45409 39.8002 3.45409C40.5606 3.45409 41.2312 3.8594 41.4448 4.45013C41.5388 4.70454 41.5772 5.00206 41.5772 5.43325V10.4782H39.813V5.98517C39.813 5.20472 39.6806 4.97187 39.2107 4.97187C38.8518 4.97187 38.3819 5.21334 37.9676 5.59279V10.4782H36.1777V5.47205C36.1777 4.87701 36.0965 4.31215 35.9385 3.85509V3.8594Z" fill="#151515"/>
<path d="M43.9442 0.556641C44.5465 0.556641 45.0249 1.05682 45.0249 1.67773C45.0249 2.29865 44.5294 2.79883 43.9143 2.79883C43.2991 2.79883 42.8164 2.29865 42.8164 1.67773C42.8164 1.05682 43.3247 0.556641 43.9399 0.556641H43.9442ZM43.0215 3.70001L44.8113 3.41543V10.4869H43.0215V3.70001Z" fill="#151515"/>
<path d="M45.3877 3.68166L47.2203 3.45312L48.2114 6.57062C48.3566 7.02768 48.5574 7.78658 48.6513 8.2307C48.7026 7.82539 48.8521 7.16567 49.0657 6.47576L49.9884 3.57386H51.8595L49.3605 10.4815H47.8782L45.392 3.68166H45.3877Z" fill="#151515"/>
<path d="M57.0795 8.65017L57.7758 9.72815C56.9855 10.3749 56.1568 10.6854 55.1957 10.6854C53.2306 10.6854 51.9619 9.28402 51.9619 7.11083C51.9619 5.869 52.2139 5.04543 52.8163 4.37277C53.3759 3.73893 54.0594 3.44141 54.9693 3.44141C55.7595 3.44141 56.5071 3.71306 56.9471 4.17012C57.575 4.8169 57.857 5.74827 57.857 7.19275V7.61101H53.9013V7.66275C53.9013 8.72779 54.4225 9.33576 55.3452 9.33576C55.9603 9.33576 56.5327 9.10723 57.0838 8.64586L57.0795 8.65017ZM53.9269 6.28726H55.9988V6.20533C55.9988 5.69221 55.9475 5.42488 55.7852 5.16616C55.61 4.89451 55.358 4.76085 54.9949 4.76085C54.3114 4.76085 53.9269 5.29983 53.9269 6.25707V6.28294V6.28726Z" fill="#151515"/>
<path d="M58.75 3.84525L60.3519 3.41406C60.51 3.69865 60.604 4.0091 60.6339 4.39717C60.8859 4.04791 61.3174 3.6814 61.6506 3.52186C61.7958 3.45287 62.0393 3.41406 62.2401 3.41406C62.5092 3.41406 62.6288 3.43993 62.9065 3.56067L62.4109 5.15176C62.2358 5.05689 62.0905 5.01809 61.8898 5.01809C61.4882 5.01809 61.1294 5.20781 60.7919 5.60019V10.4856H59.002V5.87184C59.002 4.94047 58.8952 4.23763 58.75 3.84956V3.84525Z" fill="#151515"/>
<path d="M67.9856 4.03627L67.3961 5.25222C66.7126 4.90296 66.2214 4.75204 65.713 4.75204C65.2047 4.75204 64.8458 5.02369 64.8458 5.4247C64.8458 5.77396 65.0722 5.96368 65.7002 6.12754L66.5289 6.34313C67.3705 6.55872 67.6524 6.81313 67.8916 7.12358C68.1437 7.44697 68.2675 7.83936 68.2675 8.29642C68.2675 9.72797 67.0928 10.6981 65.3414 10.6981C64.4998 10.6981 63.5771 10.4265 62.5732 9.90044L63.214 8.57669C63.7608 8.91302 64.7091 9.35714 65.4866 9.35714C65.995 9.35714 66.3965 9.02082 66.3965 8.57669C66.3965 8.10238 66.0633 7.86092 65.3414 7.72725L64.5383 7.58064C64.0855 7.49872 63.5216 7.17533 63.2824 6.8778C63.0431 6.58028 62.8936 6.0801 62.8936 5.63598C62.8936 4.28636 63.9488 3.38086 65.5379 3.38086C66.6357 3.38086 67.3576 3.71719 67.9856 4.02764V4.03627Z" fill="#151515"/>
<path d="M70.164 0.556641C70.7663 0.556641 71.249 1.05682 71.249 1.67773C71.249 2.29865 70.7535 2.79883 70.1384 2.79883C69.5232 2.79883 69.0405 2.29865 69.0405 1.67773C69.0405 1.05682 69.5489 0.556641 70.164 0.556641ZM69.2413 3.70001L71.0312 3.41543V10.4869H69.2413V3.70001Z" fill="#151515"/>
<path d="M78.0629 0.784585V7.96389C78.0629 9.66277 78.1954 10.219 78.315 10.4863H76.713C76.6575 10.3785 76.6319 10.2708 76.6062 10.081C76.1663 10.4734 75.6451 10.6631 75.03 10.6631C73.2913 10.6631 72.1978 9.30057 72.1978 7.15325C72.1978 5.00593 73.3896 3.5097 75.1239 3.5097C75.6195 3.5097 76.0082 3.63043 76.3414 3.90208C76.3158 3.75548 76.2901 3.28117 76.2901 2.87585V0.5L78.0672 0.784585H78.0629ZM76.3115 5.39831C75.9783 5.10079 75.6579 4.95419 75.3375 4.95419C74.5344 4.95419 74.1884 5.62684 74.1884 7.16619C74.1884 8.70553 74.496 9.13672 75.4315 9.13672C75.7647 9.13672 76.1406 8.90819 76.3115 8.6926V5.40262V5.39831Z" fill="#151515"/>
<path d="M79.4382 4.39791C79.8782 4.11333 80.0662 4.01846 80.5489 3.83305C81.2153 3.54847 81.792 3.42773 82.4199 3.42773C83.569 3.42773 84.3593 3.85892 84.6242 4.62644C84.7182 4.91103 84.7438 5.12662 84.7438 5.86827L84.7053 8.18807V8.3088C84.7053 9.05044 84.8249 9.33503 85.3461 9.72741L84.3978 10.8356C83.9834 10.6588 83.6075 10.3483 83.4366 9.99906C83.1846 10.2405 83.1547 10.2707 83.0222 10.3613C82.689 10.6027 82.2063 10.7407 81.6467 10.7407C80.1217 10.7407 79.293 9.96025 79.293 8.58045C79.293 6.96349 80.4036 6.20459 82.5823 6.20459C82.7147 6.20459 82.7958 6.20459 82.9838 6.21753V5.93295C82.9838 5.16543 82.8386 4.90671 82.1807 4.90671C81.6083 4.90671 80.9376 5.1913 80.2029 5.68717L79.4425 4.3936L79.4382 4.39791ZM82.9539 7.45935H82.8727C81.6296 7.45935 81.2025 7.68789 81.2025 8.51146C81.2025 9.05044 81.5357 9.41695 81.9927 9.41695C82.3259 9.41695 82.6591 9.24017 82.9283 8.94696L82.9539 7.46367V7.45935Z" fill="#151515"/>
<path d="M91.788 0.784585V7.96389C91.788 9.66277 91.9205 10.219 92.0401 10.4863H90.4381C90.3826 10.3785 90.357 10.2708 90.3313 10.081C89.8914 10.4734 89.3702 10.6631 88.7551 10.6631C87.0164 10.6631 85.9229 9.30057 85.9229 7.15325C85.9229 5.00593 87.1147 3.5097 88.849 3.5097C89.3446 3.5097 89.7333 3.63043 90.0665 3.90208C90.0409 3.75548 90.0152 3.28117 90.0152 2.87585V0.5L91.7923 0.784585H91.788ZM90.0366 5.39831C89.7034 5.10079 89.383 4.95419 89.0626 4.95419C88.2595 4.95419 87.9135 5.62684 87.9135 7.16619C87.9135 8.70553 88.2211 9.13672 89.1566 9.13672C89.4898 9.13672 89.8657 8.90819 90.0366 8.6926V5.40262V5.39831Z" fill="#151515"/>
<path d="M34.7767 13.4487L33.9351 14.7293C33.4652 14.38 32.974 14.2033 32.4528 14.2033C31.8249 14.2033 31.2097 14.5137 30.8765 15.0139C30.5134 15.5529 30.3554 16.3376 30.3554 17.4286C30.3554 18.7092 30.4622 19.425 30.7441 19.9381C31.12 20.628 31.7352 20.9902 32.534 20.9902C33.0423 20.9902 33.4823 20.8436 33.9394 20.5331C33.9949 20.4943 34.059 20.4383 34.1274 20.3865L34.9817 21.5723C34.247 22.1803 33.4567 22.4476 32.4016 22.4476C31.12 22.4476 30.129 22.0293 29.3686 21.154C28.621 20.3046 28.2451 19.1706 28.2451 17.7951C28.2451 16.6222 28.4459 15.6909 28.8731 14.8802C29.595 13.5177 30.9321 12.707 32.4272 12.707C33.3499 12.707 34.2726 13.0046 34.781 13.4487H34.7767Z" fill="#151515"/>
<path d="M35.2165 16.2046C35.6565 15.92 35.8445 15.8251 36.3272 15.6397C36.9936 15.3551 37.5703 15.2344 38.1982 15.2344C39.3474 15.2344 40.1376 15.6656 40.4025 16.4374C40.4965 16.722 40.5221 16.9376 40.5221 17.6792L40.4837 19.999V20.1198C40.4837 20.8614 40.6033 21.146 41.1244 21.5384L40.1761 22.6465C39.7617 22.4697 39.3858 22.1593 39.2149 21.81C38.9629 22.0515 38.933 22.0774 38.8006 22.1722C38.4674 22.4137 37.9847 22.5517 37.425 22.5517C35.9 22.5517 35.0713 21.7669 35.0713 20.3914C35.0713 18.7701 36.182 18.0155 38.3606 18.0155C38.493 18.0155 38.5742 18.0155 38.7621 18.0285V17.7439C38.7621 16.9764 38.6169 16.7177 37.959 16.7177C37.3823 16.7177 36.7159 17.0023 35.9812 17.5024L35.2208 16.2089L35.2165 16.2046ZM38.7322 19.266H38.6511C37.408 19.266 36.9808 19.4945 36.9808 20.3181C36.9808 20.8571 37.314 21.2236 37.7711 21.2236C38.1043 21.2236 38.4375 21.0468 38.7066 20.7493L38.7322 19.266Z" fill="#151515"/>
<path d="M41.791 15.7043L43.41 15.2602C43.5296 15.4499 43.5852 15.6094 43.6492 15.963C44.1191 15.5059 44.6916 15.2602 45.3195 15.2602C45.8791 15.2602 46.349 15.4499 46.7078 15.825C46.8018 15.9199 46.8403 15.9716 46.977 16.1614C47.6049 15.5146 48.1645 15.2559 48.9164 15.2559C49.4503 15.2559 49.9587 15.4197 50.2663 15.687C50.655 16.0234 50.7746 16.4287 50.7746 17.373V22.2842H49.036V17.7223C49.036 16.8987 48.942 16.7348 48.4764 16.7348C48.1432 16.7348 47.6733 16.9634 47.2845 17.3169V22.2799H45.5886V17.7869C45.5886 16.9246 45.469 16.7219 44.9735 16.7219C44.6403 16.7219 44.1832 16.8987 43.7988 17.248V22.2799H42.0473V17.4635C42.0473 16.4675 41.979 16.032 41.791 15.6957V15.7043Z" fill="#151515"/>
<path d="M53.1497 12.3574C53.752 12.3574 54.2305 12.8576 54.2305 13.4785C54.2305 14.0994 53.735 14.5996 53.1198 14.5996C52.5047 14.5996 52.022 14.0994 52.022 13.4785C52.022 12.8576 52.5303 12.3574 53.1455 12.3574H53.1497ZM52.227 15.5008L54.0169 15.2162V22.2877H52.227V15.5008Z" fill="#151515"/>
<path d="M57.1866 12.3008C57.2549 12.6802 57.2806 13.1244 57.2806 14.0945V19.4758C57.2806 20.6615 57.2934 20.8254 57.4002 21.0151C57.4685 21.1359 57.6138 21.2048 57.759 21.2048C57.8274 21.2048 57.8658 21.2048 57.9598 21.179L58.2674 22.2569C57.9598 22.3777 57.5839 22.4467 57.1994 22.4467C56.439 22.4467 55.8239 22.0802 55.6103 21.5024C55.4779 21.1531 55.448 20.9375 55.448 19.9501V14.7974C55.448 13.8919 55.4224 13.3399 55.354 12.719L57.1866 12.3008Z" fill="#151515"/>
<path d="M61.4883 15.2461C62.4623 15.2461 63.2269 15.5824 63.8121 16.2853C64.3589 16.932 64.6024 17.6866 64.6024 18.8077C64.6024 19.9935 64.3333 20.8041 63.7481 21.4811C63.2269 22.0761 62.5434 22.4383 61.4883 22.4383C59.6301 22.4383 58.4126 21.037 58.4126 18.8638C58.4126 16.6906 59.6429 15.2461 61.4883 15.2461ZM61.5139 16.5828C61.0867 16.5828 60.7407 16.8544 60.5912 17.2856C60.4716 17.6478 60.4032 18.1351 60.4032 18.825C60.4032 19.6227 60.4844 20.2134 60.6297 20.567C60.7877 20.9464 61.1893 21.1318 61.5395 21.1318C62.317 21.1318 62.6502 20.429 62.6502 18.7991C62.6502 17.8677 62.5306 17.2597 62.2914 16.9493C62.1162 16.7208 61.8386 16.5871 61.5139 16.5871V16.5828Z" fill="#151515"/>
<path d="M68.6261 12.9102H70.5228V20.4646C70.5228 21.6805 70.4844 21.922 70.3904 22.2971C70.1213 23.4441 69.0661 24.1728 68.2246 24.4962L67.3574 23.526C67.8401 23.2285 68.2673 22.7715 68.4382 22.392C68.5834 22.0557 68.6261 21.6762 68.6261 20.6673V12.9102Z" fill="#151515"/>
<path d="M74.3335 15.2461C75.3075 15.2461 76.0721 15.5824 76.6574 16.2853C77.2041 16.932 77.4476 17.6866 77.4476 18.8077C77.4476 19.9935 77.1828 20.8041 76.5933 21.4811C76.0721 22.0761 75.3886 22.4383 74.3335 22.4383C72.4753 22.4383 71.2578 21.037 71.2578 18.8638C71.2578 16.6906 72.4881 15.2461 74.3335 15.2461ZM74.3591 16.5828C73.932 16.5828 73.5859 16.8544 73.4364 17.2856C73.3168 17.6478 73.2485 18.1351 73.2485 18.825C73.2485 19.6227 73.3296 20.2134 73.4749 20.567C73.6372 20.9464 74.0345 21.1318 74.3848 21.1318C75.158 21.1318 75.4954 20.429 75.4954 18.7991C75.4954 17.8677 75.3758 17.2597 75.1366 16.9493C74.9615 16.7208 74.6838 16.5871 74.3634 16.5871L74.3591 16.5828Z" fill="#151515"/>
<path d="M83.1975 15.8382L82.608 17.0541C81.9245 16.7049 81.4333 16.554 80.9249 16.554C80.4166 16.554 80.0578 16.8213 80.0578 17.2266C80.0578 17.5759 80.2842 17.7656 80.9121 17.9295L81.7408 18.1451C82.5824 18.3606 82.8643 18.6194 83.1035 18.9298C83.3556 19.2532 83.4795 19.6456 83.4795 20.1027C83.4795 21.5342 82.3047 22.5044 80.5533 22.5044C79.7117 22.5044 78.789 22.2327 77.7852 21.7067L78.4259 20.3829C78.9727 20.7193 79.9211 21.1634 80.6985 21.1634C81.2069 21.1634 81.6084 20.8271 81.6084 20.3829C81.6084 19.9086 81.2752 19.6672 80.5533 19.5335L79.7502 19.3869C79.2974 19.305 78.7335 18.9816 78.4943 18.684C78.2551 18.3865 78.1055 17.8863 78.1055 17.4422C78.1055 16.0926 79.1607 15.1914 80.7541 15.1914C81.8519 15.1914 82.5738 15.5277 83.2018 15.8382H83.1975Z" fill="#151515"/>
<path d="M89.1821 20.4516L89.8784 21.5296C89.0881 22.1764 88.2594 22.4869 87.2982 22.4869C85.3332 22.4869 84.0645 21.0855 84.0645 18.9123C84.0645 17.6705 84.3165 16.8469 84.9188 16.1742C85.4784 15.5404 86.1619 15.2429 87.0718 15.2429C87.8621 15.2429 88.6096 15.5145 89.0496 15.9716C89.6776 16.6184 89.9595 17.5497 89.9595 18.9942V19.4125H86.0039V19.4685C86.0039 20.5336 86.525 21.1415 87.4477 21.1415C88.0629 21.1415 88.6353 20.913 89.1863 20.4516H89.1821ZM88.3277 12.0176L89.1009 13.4189L86.1064 14.7686L85.5596 13.7725L88.3277 12.0176ZM86.0295 18.0887H88.1013V18.0068C88.1013 17.4937 88.05 17.2263 87.8877 16.9676C87.7126 16.696 87.4605 16.5623 87.0974 16.5623C86.4139 16.5623 86.0295 17.1013 86.0295 18.0585V18.0844V18.0887Z" fill="#151515"/>
<path d="M99.93 13.4487L99.0885 14.7293C98.6228 14.38 98.1273 14.2033 97.6062 14.2033C96.9782 14.2033 96.3631 14.5137 96.0299 15.0139C95.671 15.5529 95.5087 16.3376 95.5087 17.4286C95.5087 18.7092 95.6155 19.425 95.8974 19.9381C96.2734 20.628 96.8885 20.9902 97.6873 20.9902C98.1957 20.9902 98.6357 20.8436 99.0927 20.5331C99.1483 20.4943 99.2123 20.4383 99.2807 20.3865L100.135 21.5723C99.4003 22.1803 98.61 22.4476 97.5549 22.4476C96.2734 22.4476 95.2823 22.0293 94.5219 21.154C93.7744 20.3046 93.3984 19.1706 93.3984 17.7951C93.3984 16.6222 93.5992 15.6909 94.0264 14.8802C94.7483 13.5177 96.0854 12.707 97.5805 12.707C98.5032 12.707 99.4259 13.0046 99.9343 13.4487H99.93Z" fill="#151515"/>
<path d="M105.462 20.451L106.158 21.5289C105.368 22.1757 104.539 22.4862 103.578 22.4862C101.613 22.4862 100.344 21.0848 100.344 18.9116C100.344 17.6698 100.596 16.8462 101.199 16.1736C101.758 15.5397 102.442 15.2422 103.352 15.2422C104.142 15.2422 104.889 15.5138 105.329 15.9709C105.957 16.6177 106.239 17.5491 106.239 18.9935V19.4118H102.284V19.4678C102.284 20.5329 102.805 21.1409 103.728 21.1409C104.343 21.1409 104.919 20.9123 105.466 20.451H105.462ZM102.309 18.088H104.381V18.0061C104.381 17.493 104.33 17.2257 104.167 16.9669C103.992 16.6953 103.74 16.5616 103.377 16.5616C102.694 16.5616 102.309 17.1006 102.309 18.0579V18.0837V18.088Z" fill="#151515"/>
<path d="M109.029 12.3008C109.097 12.6802 109.123 13.1244 109.123 14.0945V19.4758C109.123 20.6615 109.136 20.8254 109.242 21.0151C109.311 21.1359 109.456 21.2048 109.601 21.2048C109.67 21.2048 109.708 21.2048 109.802 21.179L110.11 22.2569C109.802 22.3777 109.426 22.4467 109.042 22.4467C108.281 22.4467 107.666 22.0802 107.453 21.5024C107.32 21.1531 107.29 20.9375 107.29 19.9501V14.7974C107.29 13.8919 107.265 13.3399 107.196 12.719L109.029 12.3008Z" fill="#151515"/>
<path d="M110.456 16.2046C110.896 15.92 111.084 15.8251 111.566 15.6397C112.233 15.3551 112.81 15.2344 113.437 15.2344C114.587 15.2344 115.377 15.6656 115.642 16.4374C115.736 16.722 115.761 16.9376 115.761 17.6792L115.723 19.999V20.1198C115.723 20.8614 115.843 21.146 116.364 21.5384L115.415 22.6465C115.001 22.4697 114.625 22.1593 114.454 21.81C114.202 22.0515 114.172 22.0774 114.04 22.1722C113.707 22.4137 113.224 22.5517 112.664 22.5517C111.139 22.5517 110.311 21.7669 110.311 20.3914C110.311 18.7701 111.421 18.0155 113.6 18.0155C113.732 18.0155 113.813 18.0155 114.001 18.0285V17.7439C114.001 16.9764 113.856 16.7177 113.198 16.7177C112.622 16.7177 111.955 17.0023 111.22 17.5024L110.46 16.2089L110.456 16.2046ZM113.971 19.266H113.89C112.647 19.266 112.22 19.4945 112.22 20.3181C112.22 20.8571 112.553 21.2236 113.01 21.2236C113.344 21.2236 113.677 21.0468 113.946 20.7493L113.971 19.266Z" fill="#151515"/>
<path d="M7.07812 6.3431C7.07812 3.41101 9.43188 1.03516 12.3324 1.03516C15.233 1.03516 17.5867 3.41101 17.5867 6.3431C17.5867 9.27519 15.233 11.651 12.3324 11.651C9.43188 11.651 7.07812 9.27519 7.07812 6.3431Z" fill="#151515"/>
<path d="M23.9434 13.6307C23.5931 13.5962 23.3154 13.8291 23.1787 14.1481C21.5982 17.8909 19.7357 17.1277 18.5695 16.7741C16.331 16.0971 10.7265 13.2728 7.65503 13.2426C2.56306 13.1866 0.713369 18.4298 0.017067 21.073C-0.0854561 21.4611 0.277646 21.8621 0.674923 21.9009C1.02521 21.9354 1.28579 21.6939 1.43957 21.3835C3.17392 17.9426 5.58749 18.6196 6.83485 18.9473C9.09463 19.5423 15.2204 22.2631 17.3435 22.289C21.8587 22.3494 23.7811 17.9426 24.6183 14.4543C24.7123 14.0619 24.3364 13.6652 23.9391 13.6264L23.9434 13.6307Z" fill="#151515"/>
</g>
<defs>
<clipPath id="clip0_5996_14">
<rect width="116.364" height="24" fill="white" transform="translate(0 0.5)"/>
</clipPath>
</defs>
</svg>
